<svg viewBox="0 0 15 13" xmlns="http://www.w3.org/2000/svg">
  <path d="M14.8404 3.40394C14.7974 3.35102 14.7404 3.30783 14.6741 3.278C14.6078 3.24817 14.5343 3.23257 14.4596 3.23253H4.51128L3.75824 0.981906C3.46292 0.0956719 2.76119 0 2.47338 0H0.465484C0.208125 0 0 0.180578 0 0.403406C0 0.626234 0.20836 0.8068 0.465469 0.8068H2.47313C2.53664 0.8068 2.73047 0.8068 2.86267 1.20269L5.45322 9.45383C5.50947 9.62791 5.69252 9.74815 5.90133 9.74815H12.229C12.4254 9.74815 12.6007 9.6415 12.6671 9.48124L14.8974 3.77241C14.9487 3.64871 14.9274 3.51099 14.8404 3.40394H14.8404ZM11.9014 8.94156H6.25464L4.77292 4.03955H13.7978L11.9014 8.94156ZM10.9782 10.5657C10.3309 10.5657 9.80636 11.0203 9.80636 11.5814C9.80636 12.1424 10.3309 12.597 10.9782 12.597C11.6256 12.597 12.1501 12.1424 12.1501 11.5814C12.1501 11.0203 11.6256 10.5657 10.9782 10.5657ZM6.75948 10.5657C6.11214 10.5657 5.58761 11.0203 5.58761 11.5814C5.58761 12.1424 6.11214 12.597 6.75948 12.597C7.40683 12.597 7.93136 12.1424 7.93136 11.5814C7.93136 11.0203 7.40683 10.5657 6.75948 10.5657Z" fill="#fff9d8"/>
</svg>